# xmcd
#
# Track frame offsets: 
#        150
#        19950
#        36990
#        49583
#        69212
#        87090
#        102482
#        117926
#        134414
#        153287
#        167824
#        181728
#        193434
#        213312
#
# Disc length: 3078 seconds
#
# Revision: 0
# Processed by: cddbd v1.5.2PL0 Copyright (c) Steve Scherf et al.
# Submitted via: ExactAudioCopy v0.99pb4
#
DISCID=c00c040e
DTITLE=California Honeydrops - B-Sides From The Blues Cave
DYEAR=2009
DGENRE=Blues
TTITLE0=This Little Girl Of Mine
TTITLE1=Down By The River
TTITLE2=Candy Man
TTITLE3=Bourbon Street Parade
TTITLE4=Love To Love You
TTITLE5=Drunk
TTITLE6=I Found A Love
TTITLE7=Yours Truly
TTITLE8=Everybody's Whalin'
TTITLE9=Hallelujah, I Love Her So
TTITLE10=The Things That I Used To Do
TTITLE11=Little Chickee Wah Wah
TTITLE12=Judgement Day
TTITLE13=The King Is Gone
EXTD=
EXTT0=
EXTT1=
EXTT2=
EXTT3=
EXTT4=
EXTT5=
EXTT6=
EXTT7=
EXTT8=
EXTT9=
EXTT10=
EXTT11=
EXTT12=
EXTT13=
PLAYORDER=
